<svg id="Calque_1" data-name="Calque 1" xmlns="http://www.w3.org/2000/svg" viewBox="0 0 201.09 37.76"><defs><style>.cls-1{fill:#fff;}</style></defs><title>logo normal</title><path class="cls-1" d="M10.41,18.17a.82.82,0,0,0-.39.73.78.78,0,0,0,.18.52,1.83,1.83,0,0,0,.73.45,11.81,11.81,0,0,0,1.61.52,19.19,19.19,0,0,1,3.87,1.45,6.07,6.07,0,0,1,2.31,2A5.61,5.61,0,0,1,19.53,27a5.33,5.33,0,0,1-1,3.24,5.91,5.91,0,0,1-2.78,2,11.77,11.77,0,0,1-4.17.67,12,12,0,0,1-4.34-.77,9.67,9.67,0,0,1-3.51-2.29,1,1,0,0,1-.32-.67,1.1,1.1,0,0,1,.34-.71l2.51-2.58a.82.82,0,0,1,.6-.25A1.53,1.53,0,0,1,7.7,26a7.22,7.22,0,0,0,1.91,1.1,5.35,5.35,0,0,0,2,.4,4.82,4.82,0,0,0,1.51-.19.71.71,0,0,0,.52-.71,1,1,0,0,0-.62-.91,9.38,9.38,0,0,0-2-.74,19.49,19.49,0,0,1-3.67-1.36,5.55,5.55,0,0,1-2.22-2,6,6,0,0,1-.79-3.27,5.37,5.37,0,0,1,.82-2.88,5.9,5.9,0,0,1,2.44-2.14,8.48,8.48,0,0,1,3.88-.82,9.91,9.91,0,0,1,3.94.8,9.43,9.43,0,0,1,3.22,2.27,1.19,1.19,0,0,1,.41.74,1,1,0,0,1-.43.73l-2.2,2.11a1,1,0,0,1-.71.27,1.39,1.39,0,0,1-.78-.25,5.07,5.07,0,0,0-1.54-.92,5.48,5.48,0,0,0-1.85-.29A2,2,0,0,0,10.41,18.17Z" transform="translate(-3.43 -2.26)"/><path class="cls-1" d="M33.49,27.65a.75.75,0,0,1,.29.61V32a.78.78,0,0,1-.31.64,1.21,1.21,0,0,1-.78.24,9.22,9.22,0,0,1-6.48-2.09c-1.52-1.4-2.27-3.49-2.27-6.27V17.77h-2a.59.59,0,0,1-.63-.63V13.59a.69.69,0,0,1,.17-.48.6.6,0,0,1,.46-.17h2V7.85a.79.79,0,0,1,.14-.49.72.72,0,0,1,.41-.28l4.5-1,.27,0c.33,0,.5.19.5.59v6.26h3.35a.64.64,0,0,1,.47.17.68.68,0,0,1,.16.48v3.55a.63.63,0,0,1-.63.63H29.78v6.85a2.72,2.72,0,0,0,.74,2.15,3.32,3.32,0,0,0,2.22.65A1.18,1.18,0,0,1,33.49,27.65Z" transform="translate(-3.43 -2.26)"/><path class="cls-1" d="M57.1,13.61V31.77a.67.67,0,0,1-.18.49.65.65,0,0,1-.49.2H53.81a.82.82,0,0,1-.73-.45L52,29.2a7.29,7.29,0,0,1-2.76,2.69,7.47,7.47,0,0,1-3.79,1,7.72,7.72,0,0,1-4-1,7.15,7.15,0,0,1-2.75-3,9.89,9.89,0,0,1-1-4.56V13.61a.65.65,0,0,1,.19-.5.69.69,0,0,1,.48-.17h4.5a.69.69,0,0,1,.5.17.68.68,0,0,1,.17.5V24a3.53,3.53,0,0,0,1,2.62,3.7,3.7,0,0,0,2.74,1,4.06,4.06,0,0,0,2-.51,3.93,3.93,0,0,0,1.45-1.35A3.31,3.31,0,0,0,51.26,24V13.61a.72.72,0,0,1,.17-.5.7.7,0,0,1,.5-.17h4.52A.59.59,0,0,1,57.1,13.61Z" transform="translate(-3.43 -2.26)"/><path class="cls-1" d="M80.81,2.44a.66.66,0,0,1,.19.49V31.75a.67.67,0,0,1-.18.49.66.66,0,0,1-.49.2H77.7A.78.78,0,0,1,77,32l-.87-2.26h0a7.6,7.6,0,0,1-6.3,3.17,8.66,8.66,0,0,1-4.7-1.32A9.23,9.23,0,0,1,61.81,28a11.22,11.22,0,0,1-1.21-5.2,11.49,11.49,0,0,1,1.2-5.3,9.28,9.28,0,0,1,3.3-3.68,8.69,8.69,0,0,1,4.7-1.33,7.89,7.89,0,0,1,2.94.55,7.48,7.48,0,0,1,2.44,1.58h0l0-11.64a.69.69,0,0,1,.17-.49.62.62,0,0,1,.46-.18h4.52A.73.73,0,0,1,80.81,2.44ZM73.14,26.58A4.58,4.58,0,0,0,74.79,25a4.28,4.28,0,0,0,.62-2.25,4.38,4.38,0,0,0-.62-2.28,4.46,4.46,0,0,0-3.88-2.22,4.33,4.33,0,0,0-2.19.59,4.6,4.6,0,0,0-1.62,1.63,4.46,4.46,0,0,0-.6,2.28A4.36,4.36,0,0,0,67.1,25a4.65,4.65,0,0,0,1.62,1.62,4.33,4.33,0,0,0,2.19.59A4.51,4.51,0,0,0,73.14,26.58Z" transform="translate(-3.43 -2.26)"/><path class="cls-1" d="M104.06,13.09a.47.47,0,0,1,.16.39,1,1,0,0,1-.09.36l-7.64,18-3.12,7.59a1.15,1.15,0,0,1-.33.45.85.85,0,0,1-.5.14H88.69c-.6,0-.9-.21-.9-.61a1.32,1.32,0,0,1,.14-.56l2.89-7.2L83.26,13.84a.93.93,0,0,1-.1-.38.46.46,0,0,1,.16-.37.57.57,0,0,1,.4-.15h4.84a1,1,0,0,1,.56.17,1,1,0,0,1,.34.44l4.23,11.26,4.23-11.26a1,1,0,0,1,.9-.61h4.85A.56.56,0,0,1,104.06,13.09Z" transform="translate(-3.43 -2.26)"/><path class="cls-1" d="M122.09,13.49a7.07,7.07,0,0,1,2.74,3,10.09,10.09,0,0,1,1,4.57V31.77a.67.67,0,0,1-.67.67h-4.5a.62.62,0,0,1-.67-.67V21.39a3.54,3.54,0,0,0-1-2.63,3.73,3.73,0,0,0-2.74-1,4,4,0,0,0-2,.51,3.9,3.9,0,0,0-1.46,1.36,3.38,3.38,0,0,0-.53,1.82V31.79a.6.6,0,0,1-.69.67H107a.65.65,0,0,1-.5-.18.64.64,0,0,1-.17-.49V13.63a.67.67,0,0,1,.19-.51.7.7,0,0,1,.5-.18h2.62a.79.79,0,0,1,.42.12.8.8,0,0,1,.31.32l1.09,2.8a7.12,7.12,0,0,1,2.75-2.69A7.39,7.39,0,0,1,118,12.44,7.8,7.8,0,0,1,122.09,13.49Z" transform="translate(-3.43 -2.26)"/><path class="cls-1" d="M130.5,17.53a10.15,10.15,0,0,1,3.79-3.71,10.89,10.89,0,0,1,10.54,0,10.2,10.2,0,0,1,0,17.74,11,11,0,0,1-10.54,0,10.22,10.22,0,0,1-3.79-3.71,10.34,10.34,0,0,1,0-10.32Zm5.11,7.54a4.38,4.38,0,0,0,3.92,2.29,4.53,4.53,0,0,0,2.32-.6,4.23,4.23,0,0,0,1.62-1.68,4.89,4.89,0,0,0,.58-2.39,5,5,0,0,0-.58-2.4,4.27,4.27,0,0,0-1.62-1.67,4.53,4.53,0,0,0-2.32-.6,4.4,4.4,0,0,0-3.92,2.28,5,5,0,0,0,0,4.77Z" transform="translate(-3.43 -2.26)"/><path class="cls-1" d="M164.06,27.65a.75.75,0,0,1,.29.61V32a.78.78,0,0,1-.31.64,1.21,1.21,0,0,1-.78.24c-2.8,0-5-.69-6.47-2.09s-2.28-3.49-2.28-6.27V17.77h-2a.61.61,0,0,1-.47-.17.6.6,0,0,1-.17-.46V13.59a.69.69,0,0,1,.17-.48.61.61,0,0,1,.47-.17h2V7.85a.79.79,0,0,1,.14-.49.76.76,0,0,1,.41-.28l4.5-1,.27,0c.33,0,.5.19.5.59v6.26h3.35a.64.64,0,0,1,.47.17.68.68,0,0,1,.16.48v3.55a.63.63,0,0,1-.63.63h-3.33v6.85a2.75,2.75,0,0,0,.74,2.15,3.32,3.32,0,0,0,2.22.65A1.18,1.18,0,0,1,164.06,27.65Z" transform="translate(-3.43 -2.26)"/><path class="cls-1" d="M186.19,23.41a3,3,0,0,1-1,1.17,2.22,2.22,0,0,1-1.34.44H172.72a4,4,0,0,0,1.7,1.89,5.19,5.19,0,0,0,2.72.72,5.55,5.55,0,0,0,1.81-.35,6.4,6.4,0,0,0,1.73-.88.75.75,0,0,1,.44-.15.7.7,0,0,1,.61.35l2.19,2.91a.89.89,0,0,1,.15.47.73.73,0,0,1-.27.58,10.18,10.18,0,0,1-3.18,1.7,10.9,10.9,0,0,1-3.63.67,10.45,10.45,0,0,1-5.27-1.36,10,10,0,0,1-3.78-3.7,9.86,9.86,0,0,1-1.39-5.14,10.16,10.16,0,0,1,10.24-10.27,9.94,9.94,0,0,1,5,1.24,9.18,9.18,0,0,1,4.8,8.17A3.61,3.61,0,0,1,186.19,23.41Zm-12-4.83a4.12,4.12,0,0,0-1.5,2.06h8.08a4,4,0,0,0-1.52-2.06,4.35,4.35,0,0,0-2.58-.79A4.08,4.08,0,0,0,174.18,18.58Z" transform="translate(-3.43 -2.26)"/><path class="cls-1" d="M195.4,18.17a.81.81,0,0,0-.4.73.74.74,0,0,0,.19.52,1.85,1.85,0,0,0,.72.45,12.55,12.55,0,0,0,1.62.52,19.67,19.67,0,0,1,3.87,1.45,6.15,6.15,0,0,1,2.31,2,5.61,5.61,0,0,1,.81,3.12,5.33,5.33,0,0,1-1,3.24,5.91,5.91,0,0,1-2.78,2,11.81,11.81,0,0,1-4.17.67,12,12,0,0,1-4.34-.77,9.59,9.59,0,0,1-3.51-2.29.94.94,0,0,1-.32-.67,1.1,1.1,0,0,1,.34-.71l2.51-2.58a.79.79,0,0,1,.59-.25,1.53,1.53,0,0,1,.83.32,7.07,7.07,0,0,0,1.91,1.1,5.35,5.35,0,0,0,2,.4,4.87,4.87,0,0,0,1.51-.19.71.71,0,0,0,.52-.71,1,1,0,0,0-.62-.91,9.38,9.38,0,0,0-2-.74,19.62,19.62,0,0,1-3.68-1.36,5.59,5.59,0,0,1-2.21-2,6,6,0,0,1-.79-3.27,5.37,5.37,0,0,1,.82-2.88,5.84,5.84,0,0,1,2.44-2.14,8.45,8.45,0,0,1,3.88-.82,9.91,9.91,0,0,1,3.94.8,9.43,9.43,0,0,1,3.22,2.27,1.16,1.16,0,0,1,.4.74,1,1,0,0,1-.42.73l-2.2,2.11a1,1,0,0,1-.71.27,1.39,1.39,0,0,1-.78-.25,5.07,5.07,0,0,0-1.54-.92,5.48,5.48,0,0,0-1.85-.29A2,2,0,0,0,195.4,18.17Z" transform="translate(-3.43 -2.26)"/></svg>